<?xml version="1.0" encoding="UTF-8" standalone="no"?>
<!-- Created with Inkscape (http://www.inkscape.org/) -->

<svg
   width="77.313019mm"
   height="76.110695mm"
   viewBox="0 0 77.313019 76.110695"
   version="1.1"
   id="svg1"
   inkscape:version="1.3.2 (091e20e, 2023-11-25, custom)"
   sodipodi:docname="Logo.svg"
   inkscape:export-filename="Website\FavIcon_HDN.svg"
   inkscape:export-xdpi="1.37"
   inkscape:export-ydpi="1.37"
   xmlns:inkscape="http://www.inkscape.org/namespaces/inkscape"
   xmlns:sodipodi="http://sodipodi.sourceforge.net/DTD/sodipodi-0.dtd"
   xmlns="http://www.w3.org/2000/svg"
   xmlns:svg="http://www.w3.org/2000/svg">
  <sodipodi:namedview
     id="namedview1"
     pagecolor="#ffffff"
     bordercolor="#000000"
     borderopacity="0.25"
     inkscape:showpageshadow="2"
     inkscape:pageopacity="0.0"
     inkscape:pagecheckerboard="0"
     inkscape:deskcolor="#d1d1d1"
     inkscape:document-units="mm"
     showborder="false"
     inkscape:zoom="0.70710678"
     inkscape:cx="442.64885"
     inkscape:cy="417.90011"
     inkscape:window-width="1920"
     inkscape:window-height="1009"
     inkscape:window-x="-8"
     inkscape:window-y="-8"
     inkscape:window-maximized="1"
     inkscape:current-layer="layer1"
     showguides="true" />
  <defs
     id="defs1" />
  <g
     inkscape:label="Слой 1"
     inkscape:groupmode="layer"
     id="layer1"
     transform="translate(-17.939572,-64.103018)">
    <path
       style="font-weight:bold;font-size:50.8px;line-height:0;font-family:Arial;-inkscape-font-specification:'Arial, Bold';letter-spacing:-6.35px;fill:#248cec;fill-opacity:1;fill-rule:evenodd;stroke-width:0.353073"
       d="m 17.939573,99.308336 v 40.905374 h 6.227116 v -22.55262 z"
       id="path13" />
    <path
       style="font-weight:bold;font-size:50.8px;line-height:0;font-family:Arial;-inkscape-font-specification:'Arial, Bold';letter-spacing:-6.35px;fill:#333333;fill-rule:evenodd;stroke-width:0.353073"
       d="m 69.439489,64.103032 v 19.063365 l 9.689557,27.213293 -0.0013,0.003 10.774296,29.83079 h 5.35055 V 64.103032 h -0.01925 l -5.666116,12.287081 0.348877,42.970167 z"
       id="path12" />
    <path
       style="font-weight:bold;font-size:50.8px;line-height:0;font-family:Arial;-inkscape-font-specification:'Arial, Bold';letter-spacing:-6.35px;fill:#248cec;fill-opacity:1;fill-rule:evenodd;stroke-width:0.353073"
       d="m 69.439489,98.624761 v 0.838245 c -4.47e-4,-0.03944 -4.47e-4,-0.08008 -0.0013,-0.120051 l 0.0022,8.680995 -4.48e-4,-0.13522 v 32.32498 H 74.7765 v -25.86019 z"
       id="path14" />
    <path
       style="font-weight:bold;font-size:50.8px;line-height:0;font-family:Arial;-inkscape-font-specification:'Arial, Bold';letter-spacing:-6.35px;fill:#333333;fill-rule:evenodd;stroke-width:0.353073"
       d="m 43.626423,64.103032 v 20.009772 l 6.227111,17.489616 V 76.978507 h 2.797997 c 2.538513,0 4.242585,0.242284 5.112123,0.726843 1.164075,0.623005 2.124851,1.81712 2.882139,3.582292 0.757365,1.765169 1.346414,4.222615 1.767171,7.372249 0.420743,3.149615 0.631114,7.666491 0.631114,13.550409 0,5.88392 -0.210371,10.53922 -0.631114,13.96574 -0.420757,3.3919 -0.967742,5.83205 -1.640939,7.32034 -0.65917,1.4883 -1.493683,2.54393 -2.503467,3.16694 -0.771369,0.48455 -2.02663,0.72684 -3.765724,0.72684 h -4.6493 v -9.41865 L 43.626423,99.617677 V 140.21371 H 55.34434 c 2.300091,0 4.1374,-0.53645 5.511838,-1.60942 1.837283,-1.45365 3.295882,-3.47847 4.375818,-6.07433 1.430548,-3.42652 2.531508,-7.90875 3.302887,-13.44655 0.50747,-3.64565 0.796063,-7.89113 0.89497,-12.657 l -0.05171,-7.966055 0.01227,-0.04544 0.0035,-1.278463 c -0.13648,-4.651087 -0.439217,-8.738864 -0.922109,-12.214616 -0.673198,-4.880178 -1.654949,-8.99902 -2.945252,-12.356305 -1.290312,-3.357303 -2.840132,-5.69361 -4.6493,-7.008829 -1.346414,-0.969124 -3.302918,-1.453683 -5.869483,-1.453683 z"
       id="path11" />
    <path
       style="font-weight:bold;font-size:50.8px;line-height:0;font-family:Arial;-inkscape-font-specification:'Arial, Bold';letter-spacing:-6.35px;fill:#333333;fill-rule:evenodd;stroke-width:0.353073"
       d="m 17.939573,64.103032 v 19.714495 l 8.230504,23.117233 h 10.198391 v 33.27895 h 6.227114 V 64.103032 H 36.368468 V 94.059284 H 29.816585 L 24.166689,78.189911 V 64.103032 Z"
       id="text7" />
  </g>
</svg>
