<?xml version="1.0" encoding="UTF-8" standalone="no"?>
<!-- Created with Inkscape (http://www.inkscape.org/) -->

<svg
   width="48"
   height="48"
   viewBox="0 0 12.7 12.7"
   version="1.1"
   id="svg1"
   xmlns="http://www.w3.org/2000/svg"
   xmlns:svg="http://www.w3.org/2000/svg">
  <defs
     id="defs1" />
  <g
     id="layer1"
     style="display:inline">
    <path
       style="fill:#cfd8dc;fill-opacity:1;fill-rule:evenodd;stroke-width:0.259306"
       d="m 119.3245,81.725244 v 12.235429 a 2.9104167,2.9104167 45 0 0 2.91042,2.910417 h 32.5117 a 2.9104167,2.9104167 45 0 1 2.91042,2.910417 v 31.528823 a 2.8909243,2.8909243 44.807488 0 0 2.91035,2.89086 l 11.25061,-0.0756 a 2.9300406,2.9300406 134.80749 0 0 2.91035,-2.92998 l 0,-49.470366 a 2.9104167,2.9104167 45 0 0 -2.91042,-2.910417 l -49.58301,0 a 2.9104167,2.9104167 135 0 0 -2.91042,2.910417 z"
       id="path3"
       transform="matrix(0.09582124,0,0,0.09575283,-4.3424643,-7.1600804)" />
    <path
       id="rect1"
       style="fill:#00bcd4;fill-opacity:1;fill-rule:evenodd;stroke-width:0.259306"
       d="m 89.328398,80.128959 -5.17e-4,-5.17e-4 C 75.615314,93.725708 63.937225,105.24131 52.294623,116.79265 c -1.141039,1.1321 -2.065648,3.35327 -2.065648,4.96065 v 79.55896 a 2.9104167,2.9104167 45 0 0 2.910417,2.91042 h 77.999368 c 1.60738,0 3.83634,-0.91684 4.97851,-2.04781 12.15834,-12.03907 24.31682,-24.078 36.47528,-36.11694 1.14218,-1.13096 2.0848,-3.35072 2.10539,-4.95797 0.0168,-1.31157 -1.27259,-2.36598 -2.87993,-2.35515 -23.41921,0.15781 -62.55146,0.42119 -73.927924,0.49788 -1.757174,0.0118 -3.181689,-1.40301 -3.181744,-3.16023 l -0.0023,-74.357496 a 2.910306,2.910306 44.997129 0 0 -2.910507,-2.910216 3.6742834,3.6742834 151.95627 0 0 -2.467126,1.314211 z"
       transform="matrix(0.09582124,0,0,0.09575283,-4.3424643,-7.1600804)" />
  </g>
</svg>
