<?xml version="1.0" encoding="UTF-8" standalone="no"?>
<!-- Created with Inkscape (http://www.inkscape.org/) -->

<svg
   width="251.69231mm"
   height="62.58279mm"
   viewBox="0 0 251.69231 62.58279"
   version="1.1"
   id="svg1"
   inkscape:version="1.3.2 (091e20e, 2023-11-25, custom)"
   sodipodi:docname="Logo.svg"
   inkscape:export-filename="Website\FavIcon_HDN.svg"
   inkscape:export-xdpi="1.37"
   inkscape:export-ydpi="1.37"
   xmlns:inkscape="http://www.inkscape.org/namespaces/inkscape"
   xmlns:sodipodi="http://sodipodi.sourceforge.net/DTD/sodipodi-0.dtd"
   xmlns="http://www.w3.org/2000/svg"
   xmlns:svg="http://www.w3.org/2000/svg">
  <sodipodi:namedview
     id="namedview1"
     pagecolor="#ffffff"
     bordercolor="#000000"
     borderopacity="0.25"
     inkscape:showpageshadow="2"
     inkscape:pageopacity="0.0"
     inkscape:pagecheckerboard="0"
     inkscape:deskcolor="#d1d1d1"
     inkscape:document-units="mm"
     showborder="false"
     inkscape:zoom="0.70710678"
     inkscape:cx="442.64885"
     inkscape:cy="417.90011"
     inkscape:window-width="1920"
     inkscape:window-height="1009"
     inkscape:window-x="-8"
     inkscape:window-y="-8"
     inkscape:window-maximized="1"
     inkscape:current-layer="layer1"
     showguides="true" />
  <defs
     id="defs1" />
  <g
     inkscape:label="Слой 1"
     inkscape:groupmode="layer"
     id="layer1"
     transform="translate(36.326329,-64.103018)">
    <path
       style="font-weight:bold;font-size:50.8px;line-height:0;font-family:Arial;-inkscape-font-specification:'Arial, Bold';letter-spacing:-6.35px;fill:#248cec;fill-opacity:1;fill-rule:evenodd;stroke-width:0.369896"
       d="M -3.6824574,80.968249 V 100.56411 H 10.584542 V 89.760198 Z"
       id="path13" />
    <path
       style="font-weight:bold;font-size:50.8px;line-height:0;font-family:Arial;-inkscape-font-specification:'Arial, Bold';letter-spacing:-6.35px;fill:#333333;fill-rule:evenodd;stroke-width:0.369896"
       d="m 114.30945,64.103028 v 9.132371 l 22.19984,13.036622 -0.003,0.0015 24.68509,14.290539 h 12.25869 V 64.103028 h -0.0441 l -12.98169,5.886168 0.79932,20.585005 z"
       id="path12" />
    <path
       style="font-weight:bold;font-size:50.8px;line-height:0;font-family:Arial;-inkscape-font-specification:'Arial, Bold';letter-spacing:-6.35px;fill:#248cec;fill-opacity:1;fill-rule:evenodd;stroke-width:0.369896"
       d="m 114.30945,80.640781 v 0.401563 c -8.1e-4,-0.0189 -8.1e-4,-0.03835 -0.003,-0.05751 l 0.005,4.158658 -8.2e-4,-0.06478 v 15.485398 h 12.22665 V 88.175697 Z"
       id="path14" />
    <path
       style="font-weight:bold;font-size:50.8px;line-height:0;font-family:Arial;-inkscape-font-specification:'Arial, Bold';letter-spacing:-6.35px;fill:#333333;fill-rule:evenodd;stroke-width:0.369896"
       d="m 55.168912,64.103028 v 9.58575 l 14.26699,8.37846 v -11.79617 h 6.410516 c 5.816002,0 9.720224,0.116064 11.71243,0.348197 2.66702,0.298452 4.868259,0.870497 6.60329,1.71611 1.735211,0.84561 3.084779,2.022858 4.048782,3.531701 0.963969,1.508832 1.445945,3.672658 1.445945,6.491371 0,2.818708 -0.481976,5.048847 -1.445945,6.690333 -0.964003,1.624902 -2.217203,2.793863 -3.759567,3.506837 -1.51023,0.712971 -3.422195,1.218678 -5.735715,1.517128 -1.767293,0.232128 -4.643227,0.3482 -8.627692,0.3482 H 69.435902 V 89.908904 L 55.168912,81.11644 v 19.44767 h 26.847017 c 5.269763,0 9.479241,-0.25698 12.628228,-0.771004 4.209418,-0.696369 7.551213,-1.66637 10.025473,-2.909927 3.27754,-1.64148 5.79996,-3.78871 7.56727,-6.441615 1.16267,-1.746456 1.82388,-3.780273 2.05047,-6.063375 l -0.11846,-3.816168 0.0281,-0.02177 0.009,-0.612451 c -0.31269,-2.228121 -1.00629,-4.186384 -2.11265,-5.851454 -1.54237,-2.337866 -3.79167,-4.311013 -6.74789,-5.919331 C 102.3888,66.548689 98.837995,65.429473 94.692991,64.799412 91.608212,64.335149 87.125646,64.10302 81.245362,64.10302 Z"
       id="path11" />
    <path
       style="font-weight:bold;font-size:50.8px;line-height:0;font-family:Arial;-inkscape-font-specification:'Arial, Bold';letter-spacing:-6.35px;fill:#333333;fill-rule:evenodd;stroke-width:0.369896"
       d="m -3.6824574,64.103028 v 9.444296 L 15.174523,84.621711 H 38.540147 V 100.56411 H 52.807143 V 64.103028 H 38.540147 V 78.453674 H 23.52907 L 10.584542,70.851395 v -6.748367 z"
       id="text7" />
    <text
       xml:space="preserve"
       style="font-weight:bold;font-size:33.7333px;line-height:0;font-family:Arial;-inkscape-font-specification:'Arial, Bold';letter-spacing:0px;fill:#333333;fill-opacity:1;fill-rule:evenodd;stroke-width:0.17597"
       x="-28.429564"
       y="159.01019"
       id="text1"
       transform="scale(1.3111914,0.76266515)"><tspan
         sodipodi:role="line"
         id="tspan1"
         style="letter-spacing:0px;fill:#333333;fill-opacity:1;stroke-width:0.175971"
         x="-28.429564"
         y="159.01019">Tecnologies</tspan></text>
  </g>
</svg>
