<?xml version="1.0" encoding="UTF-8" standalone="no"?>
<!-- Created with Inkscape (http://www.inkscape.org/) -->

<svg
   width="251.69208mm"
   height="32.274418mm"
   viewBox="0 0 251.69208 32.274418"
   version="1.1"
   id="svg1"
   inkscape:version="1.3.2 (091e20e, 2023-11-25, custom)"
   sodipodi:docname="Logo.svg"
   inkscape:export-filename="Website\FavIcon_HDN.svg"
   inkscape:export-xdpi="1.37"
   inkscape:export-ydpi="1.37"
   xmlns:inkscape="http://www.inkscape.org/namespaces/inkscape"
   xmlns:sodipodi="http://sodipodi.sourceforge.net/DTD/sodipodi-0.dtd"
   xmlns="http://www.w3.org/2000/svg"
   xmlns:svg="http://www.w3.org/2000/svg">
  <sodipodi:namedview
     id="namedview1"
     pagecolor="#ffffff"
     bordercolor="#000000"
     borderopacity="0.25"
     inkscape:showpageshadow="2"
     inkscape:pageopacity="0.0"
     inkscape:pagecheckerboard="0"
     inkscape:deskcolor="#d1d1d1"
     inkscape:document-units="mm"
     showborder="false"
     inkscape:zoom="0.70710678"
     inkscape:cx="442.64885"
     inkscape:cy="417.90011"
     inkscape:window-width="1920"
     inkscape:window-height="1009"
     inkscape:window-x="-8"
     inkscape:window-y="-8"
     inkscape:window-maximized="1"
     inkscape:current-layer="layer1"
     showguides="true" />
  <defs
     id="defs1" />
  <g
     inkscape:label="Слой 1"
     inkscape:groupmode="layer"
     id="layer1"
     transform="translate(36.326329,-64.103018)">
    <path
       style="font-weight:bold;font-size:50.8px;line-height:0;font-family:Arial;-inkscape-font-specification:'Arial, Bold';letter-spacing:-6.35px;fill:#248cec;fill-opacity:1;fill-rule:evenodd;stroke-width:0.265632"
       d="M -3.6824574,72.800548 V 82.906284 H 10.584542 v -5.571661 z"
       id="path13"
       inkscape:export-filename="..\..\Downloads\html5up-hyperspace\images\logo_160_160.svg"
       inkscape:export-xdpi="16.146698"
       inkscape:export-ydpi="16.146698" />
    <path
       style="font-weight:bold;font-size:50.8px;line-height:0;font-family:Arial;-inkscape-font-specification:'Arial, Bold';letter-spacing:-6.35px;fill:#333333;fill-rule:evenodd;stroke-width:0.265632"
       d="m 114.30945,64.103024 v 4.709634 l 22.19984,6.723086 -0.003,7.71e-4 24.68509,7.369741 h 12.25869 V 64.103024 h -0.0441 l -12.98169,3.035542 0.79932,10.615845 z"
       id="path12" />
    <path
       style="font-weight:bold;font-size:50.8px;line-height:0;font-family:Arial;-inkscape-font-specification:'Arial, Bold';letter-spacing:-6.35px;fill:#248cec;fill-opacity:1;fill-rule:evenodd;stroke-width:0.265632"
       d="m 114.30945,72.63167 v 0.207089 c -8.1e-4,-0.0097 -8.1e-4,-0.01978 -0.003,-0.02965 l 0.005,2.144651 -8.2e-4,-0.03341 v 7.985939 h 12.22665 v -6.3888 z"
       id="path14" />
    <path
       style="font-weight:bold;font-size:50.8px;line-height:0;font-family:Arial;-inkscape-font-specification:'Arial, Bold';letter-spacing:-6.35px;fill:#333333;fill-rule:evenodd;stroke-width:0.265632"
       d="m 55.168912,64.103024 v 4.943445 l 14.26699,4.320837 v -6.083377 h 6.410516 c 5.816002,0 9.720224,0.05985 11.71243,0.179568 2.66702,0.153915 4.868259,0.448923 6.60329,0.885012 1.735211,0.436087 3.084779,1.043203 4.048782,1.821324 0.963969,0.778117 1.445945,1.894019 1.445945,3.347651 0,1.453629 -0.481976,2.603728 -1.445945,3.450256 -0.964003,0.837974 -2.217203,1.440816 -3.759567,1.808502 -1.51023,0.367685 -3.422195,0.628481 -5.735715,0.782396 -1.767293,0.119708 -4.643227,0.179568 -8.627692,0.179568 H 69.435902 v -2.326894 l -14.26699,-4.534341 v 10.029313 h 26.847017 c 5.269763,0 9.479241,-0.132527 12.628228,-0.397613 4.209418,-0.359122 7.551213,-0.85936 10.025473,-1.500672 3.27754,-0.846523 5.79996,-1.953866 7.56727,-3.321989 1.16267,-0.900662 1.82388,-1.949517 2.05047,-3.12693 l -0.11846,-1.968027 0.0281,-0.01123 0.009,-0.315847 c -0.31269,-1.149058 -1.00629,-2.15895 -2.11265,-3.017639 -1.54237,-1.205655 -3.79167,-2.223223 -6.74789,-3.052645 C 102.3888,65.36427 98.837995,64.787082 94.692991,64.462155 91.608212,64.222731 87.125646,64.10302 81.245362,64.10302 Z"
       id="path11" />
    <path
       style="font-weight:bold;font-size:50.8px;line-height:0;font-family:Arial;-inkscape-font-specification:'Arial, Bold';letter-spacing:-6.35px;fill:#333333;fill-rule:evenodd;stroke-width:0.265632"
       d="m -3.6824574,64.103024 v 4.870496 l 18.8569804,5.711147 h 23.365624 v 8.221617 H 52.807143 V 64.103024 H 38.540147 v 7.400738 H 23.52907 L 10.584542,67.583209 v -3.480185 z"
       id="text7" />
    <text
       xml:space="preserve"
       style="font-weight:bold;font-size:24.2248px;line-height:0;font-family:Arial;-inkscape-font-specification:'Arial, Bold';letter-spacing:0px;fill:#333333;fill-opacity:1;fill-rule:evenodd;stroke-width:0.126369"
       x="-20.416061"
       y="170.87233"
       id="text1"
       transform="scale(1.8258467,0.54769111)"><tspan
         sodipodi:role="line"
         id="tspan1"
         style="letter-spacing:0px;fill:#333333;fill-opacity:1;stroke-width:0.12637"
         x="-20.416061"
         y="170.87233">Tecnologies</tspan></text>
  </g>
</svg>
