<?xml version="1.0" encoding="UTF-8" standalone="no"?>
<!-- Created with Inkscape (http://www.inkscape.org/) -->

<svg
   width="251.69234mm"
   height="251.16818mm"
   viewBox="0 0 251.69234 251.16818"
   version="1.1"
   id="svg1"
   inkscape:version="1.3.2 (091e20e, 2023-11-25, custom)"
   sodipodi:docname="Logo.svg"
   inkscape:export-filename="Website\FavIcon_HDN.svg"
   inkscape:export-xdpi="1.37"
   inkscape:export-ydpi="1.37"
   xmlns:inkscape="http://www.inkscape.org/namespaces/inkscape"
   xmlns:sodipodi="http://sodipodi.sourceforge.net/DTD/sodipodi-0.dtd"
   xmlns="http://www.w3.org/2000/svg"
   xmlns:svg="http://www.w3.org/2000/svg">
  <sodipodi:namedview
     id="namedview1"
     pagecolor="#ffffff"
     bordercolor="#000000"
     borderopacity="0.25"
     inkscape:showpageshadow="2"
     inkscape:pageopacity="0.0"
     inkscape:pagecheckerboard="0"
     inkscape:deskcolor="#d1d1d1"
     inkscape:document-units="mm"
     showborder="false"
     inkscape:zoom="0.70710678"
     inkscape:cx="442.64885"
     inkscape:cy="417.90011"
     inkscape:window-width="1920"
     inkscape:window-height="1009"
     inkscape:window-x="-8"
     inkscape:window-y="-8"
     inkscape:window-maximized="1"
     inkscape:current-layer="layer1"
     showguides="true" />
  <defs
     id="defs1" />
  <g
     inkscape:label="Слой 1"
     inkscape:groupmode="layer"
     id="layer1"
     transform="translate(36.326329,-64.103018)">
    <path
       style="font-weight:bold;font-size:50.8px;line-height:0;font-family:Arial;-inkscape-font-specification:'Arial, Bold';letter-spacing:-6.35px;fill:#248cec;fill-opacity:1;fill-rule:evenodd;stroke-width:0.741028"
       d="m -3.6824574,131.7895 v 78.64554 H 10.584542 v -43.36015 z"
       id="path13"
       inkscape:export-filename="..\..\Downloads\html5up-hyperspace\images\logo_400_100.svg"
       inkscape:export-xdpi="40.384769"
       inkscape:export-ydpi="40.384769" />
    <path
       style="font-weight:bold;font-size:50.8px;line-height:0;font-family:Arial;-inkscape-font-specification:'Arial, Bold';letter-spacing:-6.35px;fill:#333333;fill-rule:evenodd;stroke-width:0.741028"
       d="m 114.30945,64.103052 v 36.651628 l 22.19984,52.32085 -0.003,0.006 24.68509,57.35329 h 12.25869 V 64.103052 h -0.0441 l -12.98169,23.623398 0.79932,82.61534 z"
       id="path12" />
    <path
       style="font-weight:bold;font-size:50.8px;line-height:0;font-family:Arial;-inkscape-font-specification:'Arial, Bold';letter-spacing:-6.35px;fill:#248cec;fill-opacity:1;fill-rule:evenodd;stroke-width:0.741028"
       d="m 114.30945,130.47525 v 1.61162 c -8.1e-4,-0.0759 -8.1e-4,-0.15391 -0.003,-0.2308 l 0.005,16.69025 -8.2e-4,-0.25999 v 62.14871 h 12.22665 v -49.71935 z"
       id="path14" />
    <path
       style="font-weight:bold;font-size:50.8px;line-height:0;font-family:Arial;-inkscape-font-specification:'Arial, Bold';letter-spacing:-6.35px;fill:#333333;fill-rule:evenodd;stroke-width:0.741028"
       d="m 55.168912,64.103052 v 38.471208 l 14.26699,33.6259 V 88.857708 h 6.410516 c 5.816002,0 9.720224,0.465808 11.71243,1.397445 2.66702,1.1978 4.868259,3.49363 6.60329,6.887392 1.735211,3.393755 3.084779,8.118485 4.048782,14.174035 0.963969,6.05551 1.445945,14.73976 1.445945,26.05231 0,11.31253 -0.481976,20.26291 -1.445945,26.85081 -0.964003,6.52134 -2.217203,11.21282 -3.759567,14.07425 -1.51023,2.86142 -3.422195,4.89101 -5.735715,6.08881 -1.767293,0.93161 -4.643227,1.39745 -8.627692,1.39745 H 69.435902 V 167.6717 l -14.26699,-35.28745 v 78.05079 h 26.847017 c 5.269763,0 9.479241,-1.03136 12.628228,-3.09433 4.209418,-2.79479 7.551213,-6.68777 10.025473,-11.67863 3.27754,-6.58787 5.79996,-15.20551 7.56727,-25.85261 1.16267,-7.00919 1.82388,-15.17166 2.05047,-24.3346 l -0.11846,-15.31571 0.0281,-0.0874 0.009,-2.458 c -0.31269,-8.94228 -1.00629,-16.80153 -2.11265,-23.48408 -1.54237,-9.382728 -3.79167,-17.301706 -6.74789,-23.756489 C 102.3888,73.918406 98.837995,69.426573 94.692991,66.897902 91.608212,65.034641 87.125646,64.10302 81.245362,64.10302 Z"
       id="path11" />
    <path
       style="font-weight:bold;font-size:50.8px;line-height:0;font-family:Arial;-inkscape-font-specification:'Arial, Bold';letter-spacing:-6.35px;fill:#333333;fill-rule:evenodd;stroke-width:0.741028"
       d="m -3.6824574,64.103052 v 37.903498 l 18.8569804,44.44567 h 23.365624 v 63.98282 H 52.807143 V 64.103052 H 38.540147 V 121.69757 H 23.52907 L 10.584542,91.186778 V 64.103052 Z"
       id="text7" />
    <text
       xml:space="preserve"
       style="font-weight:bold;font-size:67.5793px;line-height:0;font-family:Arial;-inkscape-font-specification:'Arial, Bold';letter-spacing:0px;fill:#333333;fill-opacity:1;fill-rule:evenodd;stroke-width:0.352528"
       x="-56.954105"
       y="192.12373"
       id="text1"
       transform="scale(0.6545024,1.5278783)"><tspan
         sodipodi:role="line"
         id="tspan1"
         style="letter-spacing:0px;fill:#333333;fill-opacity:1;stroke-width:0.35253"
         x="-56.954105"
         y="192.12373">Tecnologies</tspan></text>
  </g>
</svg>
